<?xml version="1.0" encoding="UTF-8"?>
<svg id="svg8" width="64" height="64" version="1.1" viewBox="0 0 16.933 16.933" xmlns="http://www.w3.org/2000/svg" xmlns:cc="http://creativecommons.org/ns#" xmlns:dc="http://purl.org/dc/elements/1.1/" xmlns:rdf="http://www.w3.org/1999/02/22-rdf-syntax-ns#">
 <metadata id="metadata2">
  <rdf:RDF>
   <cc:Work rdf:about="">
    <dc:format>image/svg+xml</dc:format>
    <dc:type rdf:resource="http://purl.org/dc/dcmitype/StillImage"/>
    <dc:title/>
    <dc:creator>
     <cc:Agent>
      <dc:title>Mirian Margiani</dc:title>
     </cc:Agent>
    </dc:creator>
    <dc:date>2021</dc:date>
    <cc:license rdf:resource="http://creativecommons.org/licenses/by-sa/4.0/"/>
   </cc:Work>
   <cc:License rdf:about="http://creativecommons.org/licenses/by-sa/4.0/">
    <cc:permits rdf:resource="http://creativecommons.org/ns#Reproduction"/>
    <cc:permits rdf:resource="http://creativecommons.org/ns#Distribution"/>
    <cc:requires rdf:resource="http://creativecommons.org/ns#Notice"/>
    <cc:requires rdf:resource="http://creativecommons.org/ns#Attribution"/>
    <cc:permits rdf:resource="http://creativecommons.org/ns#DerivativeWorks"/>
    <cc:requires rdf:resource="http://creativecommons.org/ns#ShareAlike"/>
   </cc:License>
  </rdf:RDF>
 </metadata>
 <circle id="path847" cx="9.5096" cy="6.6658" r="2.9216" fill="none" stroke="#fff" stroke-linecap="round" stroke-width=".52665"/>
 <path id="path849" d="m4.1787 13.967c0-0.24334 0-0.48694 0.053155-0.74497 0.053155-0.25804 0.15952-0.53038 0.29482-0.76715 0.1353-0.23677 0.2995-0.43785 0.56771-0.65403 0.26822-0.21618 0.64036-0.4474 1.0603-0.55981s0.88746-0.10607 1.4472-0.10286c0.55969 0.0032 1.2633 0.0033 1.8631 0.0033s1.2775-9.2e-5 1.8501-0.0033c0.57263-0.0032 1.0402-0.0096 1.4601 0.10286 0.41993 0.11241 0.79207 0.34363 1.0603 0.55981 0.26822 0.21618 0.43242 0.41726 0.56771 0.65403 0.1353 0.23677 0.24166 0.50911 0.29482 0.76715 0.05316 0.25804 0.05316 0.50164 0.05316 0.74497" fill="none" stroke="#fff" stroke-linecap="square" stroke-opacity=".50196" stroke-width=".52916"/>
 <path id="path872" d="m6.1414 8.4664a2.9216 2.9216 0 0 1-1.5502-2.5797 2.9216 2.9216 0 0 1 2.9216-2.9216 2.9216 2.9216 0 0 1 0.92175 0.14921" fill="none" stroke="#fff" stroke-width=".52665"/>
 <path id="path886" d="m2.1819 13.187c0-0.24334 0-0.48694 0.053155-0.74497 0.053155-0.25804 0.15952-0.53038 0.29482-0.76715 0.1353-0.23677 0.2995-0.43785 0.56771-0.65403 0.26822-0.21618 0.64036-0.4474 1.0603-0.55981 0.31454-0.0842 0.65578-0.10178 1.0424-0.10394" fill="none" stroke="#fff" stroke-linecap="square" stroke-opacity=".50196" stroke-width=".52916"/>
</svg>
