<?xml version="1.0" encoding="UTF-8"?>
<svg id="svg8" width="56" height="56" version="1.1" viewBox="0 0 14.816 14.816" xmlns="http://www.w3.org/2000/svg" xmlns:cc="http://creativecommons.org/ns#" xmlns:dc="http://purl.org/dc/elements/1.1/" xmlns:rdf="http://www.w3.org/1999/02/22-rdf-syntax-ns#">
 <metadata id="metadata2">
  <rdf:RDF>
   <cc:Work rdf:about="">
    <dc:format>image/svg+xml</dc:format>
    <dc:type rdf:resource="http://purl.org/dc/dcmitype/StillImage"/>
    <dc:title/>
    <dc:creator>
     <cc:Agent>
      <dc:title>Mirian Margiani</dc:title>
     </cc:Agent>
    </dc:creator>
    <dc:date>2021</dc:date>
    <cc:license rdf:resource="http://creativecommons.org/licenses/by-sa/4.0/"/>
   </cc:Work>
   <cc:License rdf:about="http://creativecommons.org/licenses/by-sa/4.0/">
    <cc:permits rdf:resource="http://creativecommons.org/ns#Reproduction"/>
    <cc:permits rdf:resource="http://creativecommons.org/ns#Distribution"/>
    <cc:requires rdf:resource="http://creativecommons.org/ns#Notice"/>
    <cc:requires rdf:resource="http://creativecommons.org/ns#Attribution"/>
    <cc:permits rdf:resource="http://creativecommons.org/ns#DerivativeWorks"/>
    <cc:requires rdf:resource="http://creativecommons.org/ns#ShareAlike"/>
   </cc:License>
  </rdf:RDF>
 </metadata>
 <path id="path869" d="m3.4449 3.3875c0.78977 0.78977 1.5885 1.5885 2.0738 2.1485 0.48528 0.56003 0.66184 0.8859 0.75002 1.2814 0.088181 0.39553 0.088181 0.86075 0.023014 1.2329-0.065166 0.3721-0.19543 0.65123-0.66742 1.1976-0.47199 0.54639-1.2904 1.3648-2.1065 2.1809" fill="none" stroke="#fff" stroke-linecap="round" stroke-linejoin="round" stroke-opacity=".99345" stroke-width=".79373"/>
 <path id="path873" d="m11.191 3.3875c-0.78977 0.78977-1.5885 1.5885-2.0738 2.1485s-0.66184 0.8859-0.75002 1.2814-0.088181 0.86075-0.023014 1.2329c0.065166 0.3721 0.19543 0.65123 0.66742 1.1976s1.2904 1.3648 2.1065 2.1809" fill="none" stroke="#fff" stroke-linecap="round" stroke-linejoin="round" stroke-opacity=".50196" stroke-width="1.0583"/>
</svg>
